#!OML:ASF F:\VICON\USERDATA\INSTALL\rory3\rory3.ASF
:FULLY-SPECIFIED
:DEGREES
422
root 4.5797 16.433 2.24346 12.7235 -8.61816 -0.781819
lowerback 5.36838 -0.486192 -0.394672
upperback 1.39261 -0.68214 -0.648632
thorax -1.58058 -0.34011 -0.39917
lowerneck -13.0182 -0.802212 -2.38999
upperneck 37.3475 -0.694878 0.161728
head 15.2481 -0.665123 0.365393
rclavicle -2.13694e-014 -5.1684e-015
rhumerus -30.4885 36.2491 -79.4398
rradius 94.1261
rwrist -29.8265
rhand -5.6326 -40.3109
rfingers 7.12502
rthumb 20.1855 -69.2822
lclavicle -2.13694e-014 -5.1684e-015
lhumerus -15.232 -39.6662 71.7839
lradius 84.944
lwrist 52.0119
lhand -17.6656 -22.4889
lfingers 7.12502
lthumb 8.59303 7.31626
rfemur -61.3097 -0.751639 19.4026
rtibia 32.6556
rfoot 35.7698 -4.44171
rtoes 3.98815
lfemur -38.4072 -0.827921 -28.8044
ltibia 49.2067
lfoot -21.9031 5.71668
ltoes 15.4282
423
root 4.57654 16.4195 2.23244 13.1019 -8.02948 -0.608206
lowerback 5.30639 -0.691342 -0.364418
upperback 1.35074 -0.952983 -0.654101
thorax -1.59073 -0.475103 -0.404275
lowerneck -13.0606 -0.81208 -2.4026
upperneck 37.15 -0.710958 0.184255
head 15.1618 -0.6681 0.374673
rclavicle 2.55438e-014 3.97569e-015
rhumerus -31.2266 36.2361 -79.5021
rradius 94.0013
rwrist -29.7368
rhand -5.04152 -40.8285
rfingers 7.12502
rthumb 20.7535 -69.7387
lclavicle 2.55438e-014 3.97569e-015
lhumerus -15.9052 -39.8648 71.8686
lradius 84.741
lwrist 51.8348
lhand -17.5959 -22.2917
lfingers 7.12502
lthumb 8.6603 7.51066
rfemur -61.8183 -1.25858 19.2926
rtibia 32.7699
rfoot 35.8015 -4.53699
rtoes 3.5082
lfemur -38.9458 -1.42996 -28.8585
ltibia 49.3123
lfoot -21.795 5.62723
ltoes 14.8831
424
root 4.58221 16.4185 2.2316 13.2275 -7.86166 -0.584419
lowerback 5.35534 -0.78845 -0.208609
upperback 1.50891 -1.07325 -0.672785
thorax -1.45939 -0.535436 -0.50357
lowerneck -13.573 -0.778435 -2.28715
upperneck 37.1888 -0.656355 0.124513
head 15.3001 -0.636394 0.336255
rclavicle -3.95581e-014 1.23246e-014
rhumerus -31.5804 36.4035 -79.3635
rradius 93.7713
rwrist -29.7398
rhand -4.87396 -41.163
rfingers 7.12502
rthumb 20.9145 -70.0555
lclavicle -3.95581e-014 1.23246e-014
lhumerus -16.3019 -39.9774 71.6768
lradius 84.5028
lwrist 51.4819
lhand -17.1906 -22.1877
lfingers 7.12502
lthumb 9.05142 7.5981
rfemur -62.0214 -1.73795 19.5755
rtibia 32.9739
rfoot 35.6819 -4.00258
rtoes 2.88706
lfemur -39.1151 -1.66511 -28.8828
ltibia 49.3698
lfoot -21.7486 5.89909
ltoes 14.054
425
root 4.56799 16.4075 2.23503 13.4265 -8.22337 -0.789125
lowerback 5.27622 -0.668479 -0.266819
upperback 1.65646 -0.914021 -0.585032
thorax -1.26022 -0.456135 -0.39336
lowerneck -14.0178 -0.758639 -2.23074
upperneck 37.2171 -0.582034 0.000896672
head 15.4183 -0.61338 0.284926
rclavicle 2.72335e-014 -3.18055e-015
rhumerus -31.7677 36.6433 -79.0881
rradius 93.3858
rwrist -29.8697
rhand -4.91242 -41.4215
rfingers 7.12502
rthumb 20.8776 -70.3181
lclavicle 2.72335e-014 -3.18055e-015
lhumerus -16.7129 -40.0552 71.4994
lradius 84.3056
lwrist 50.9922
lhand -16.88 -22.1376
lfingers 7.12502
lthumb 9.35116 7.63501
rfemur -62.2638 -1.0995 19.635
rtibia 33.0546
rfoot 35.6202 -3.96519
rtoes 2.12167
lfemur -39.5111 -1.33474 -28.6712
ltibia 49.5464
lfoot -21.6697 6.41065
ltoes 11.8748
426
root 4.5737 16.402 2.23645 13.7042 -8.04976 -0.483366
lowerback 5.14165 -0.734893 -0.357903
upperback 1.64225 -1.00694 -0.643249
thorax -1.19975 -0.502427 -0.397946
lowerneck -13.973 -0.797746 -2.35859
upperneck 37.1281 -0.60773 0.0194161
head 15.3653 -0.638127 0.311699
rclavicle -2.98177e-016 1.39149e-014
rhumerus -32.1299 36.8662 -78.8542
rradius 92.9376
rwrist -30.3281
rhand -4.5644 -42.1893
rfingers 7.12502
rthumb 21.2119 -71.0487
lclavicle -2.98177e-016 1.39149e-014
lhumerus -17.2827 -40.218 71.5069
lradius 84.0903
lwrist 50.645
lhand -16.7701 -22.1077
lfingers 7.12502
lthumb 9.45713 7.6601
rfemur -62.6917 -1.7345 19.66
rtibia 33.1475
rfoot 35.7228 -3.1786
rtoes 0.993551
lfemur -39.8428 -1.66536 -29.0249
ltibia 49.6429
lfoot -21.6795 6.61213
ltoes 11.3733
427
root 4.56219 16.3924 2.2375 13.8955 -8.23927 -0.683242
lowerback 5.14119 -0.654037 -0.350113
upperback 1.58866 -0.897659 -0.530478
thorax -1.2523 -0.44798 -0.29288
lowerneck -13.7341 -0.78779 -2.42352
upperneck 37.1188 -0.576594 0.00738734
head 15.304 -0.635924 0.324199
rclavicle -3.70733e-014 1.11319e-014
rhumerus -32.9355 37.0449 -78.8278
rradius 92.7749
rwrist -30.8305
rhand -3.9939 -43.3527
rfingers 7.12502
rthumb 21.7598 -72.1495
lclavicle -3.70733e-014 1.11319e-014
lhumerus -18.0432 -40.3964 71.6099
lradius 83.8622
lwrist 50.454
lhand -16.435 -22.0784
lfingers 7.12502
lthumb 9.78053 7.67448
rfemur -62.9234 -1.31425 19.7504
rtibia 33.1902
rfoot 36.0473 -3.66544
rtoes 0.796553
lfemur -40.1396 -1.50287 -28.7927
ltibia 49.8225
lfoot -21.8541 6.36074
ltoes 12.9452
428
root 4.55756 16.3868 2.23845 13.9594 -8.24129 -0.648749
lowerback 5.3195 -0.66251 -0.401901
upperback 1.57395 -0.912347 -0.494842
thorax -1.36546 -0.455139 -0.224016
lowerneck -13.6784 -0.742995 -2.24193
upperneck 37.0564 -0.435673 -0.33833
head 15.2568 -0.597671 0.169751
rclavicle -1.93815e-014 8.34896e-015
rhumerus -33.9443 37.1124 -78.906
rradius 92.8388
rwrist -30.8469
rhand -3.85315 -43.3387
rfingers 7.12502
rthumb 21.895 -72.1199
lclavicle -1.93815e-014 8.34896e-015
lhumerus -18.9279 -40.5733 71.7743
lradius 83.7123
lwrist 50.2999
lhand -16.512 -22.3865
lfingers 7.12502
lthumb 9.70621 7.36989
rfemur -63.097 -1.28664 19.7322
rtibia 33.3477
rfoot 37.5642 -4.42635
rtoes 8.32154
lfemur -40.2358 -1.56993 -28.8018
ltibia 49.9199
lfoot -21.949 6.32254
ltoes 13.6844
429
root 4.55942 16.3872 2.24458 13.946 -8.15491 -0.512009
lowerback 5.67485 -0.700301 -0.398027
upperback 1.48613 -0.965749 -0.510496
thorax -1.65417 -0.481239 -0.23337
lowerneck -13.4635 -0.751987 -2.2707
upperneck 36.8854 -0.415245 -0.422981
head 15.1227 -0.602621 0.144198
rclavicle -1.63997e-014 5.56597e-015
rhumerus -35.1239 37.3105 -79.16
rradius 92.6433
rwrist -30.2656
rhand -4.52528 -41.1185
rfingers 7.12502
rthumb 21.2495 -69.9737
lclavicle -1.63997e-014 5.56597e-015
lhumerus -20.0658 -40.7769 72.1025
lradius 83.6056
lwrist 50.1732
lhand -16.7833 -22.6435
lfingers 7.12502
lthumb 9.44445 7.12491
rfemur -63.1488 -1.54721 19.7454
rtibia 33.4618
rfoot 37.4964 -4.42923
rtoes 8.20439
lfemur -40.2165 -1.75595 -28.9272
ltibia 49.9925
lfoot -21.9883 6.46496
ltoes 13.5353
430
root 4.55845 16.3798 2.23995 14.1046 -7.95307 -0.376996
lowerback 6.03421 -0.77457 -0.4422
upperback 1.28557 -1.07041 -0.484649
thorax -2.05959 -0.532232 -0.167622
lowerneck -13.2539 -0.818186 -2.57341
upperneck 36.8414 -0.545327 -0.119489
head 15.0563 -0.657965 0.304917
rclavicle -1.73937e-014 -5.1684e-015
rhumerus -36.2253 37.4492 -79.2898
rradius 92.5933
rwrist -30.2508
rhand -4.16563 -42.4539
rfingers 7.12502
rthumb 21.5949 -71.2698
lclavicle -1.73937e-014 -5.1684e-015
lhumerus -21.0662 -41.0374 72.3653
lradius 83.3508
lwrist 50.1446
lhand -16.6124 -22.796
lfingers 7.12502
lthumb 9.60931 6.96485
rfemur -63.459 -1.83457 19.7108
rtibia 33.6264
rfoot 37.5076 -4.56339
rtoes 7.98136
lfemur -40.4452 -2.03006 -29.0072
ltibia 50.0226
lfoot -21.9493 6.42676
ltoes 13.6611
431
root 4.55671 16.3754 2.24104 14.2414 -7.99939 -0.314779
lowerback 6.18764 -0.770997 -0.516029
upperback 1.27589 -1.07112 -0.463734
thorax -2.15337 -0.531895 -0.102299
lowerneck -13.4779 -0.799643 -2.46269
upperneck 36.913 -0.491211 -0.25781
head 15.142 -0.638985 0.235113
rclavicle 3.97569e-016 -1.03368e-014
rhumerus -37.0029 37.4966 -79.2258
rradius 92.521
rwrist -30.0463
rhand -3.86537 -43.3747
rfingers 7.12502
rthumb 21.8832 -72.1572
lclavicle 3.97569e-016 -1.03368e-014
lhumerus -21.6433 -41.3661 72.3175
lradius 83.0024
lwrist 50.2868
lhand -16.3833 -22.9649
lfingers 7.12502
lthumb 9.83039 6.78565
rfemur -63.7295 -1.91659 19.7506
rtibia 33.7737
rfoot 37.486 -4.94565
rtoes 8.30121
lfemur -40.6072 -2.10035 -29.045
ltibia 50.0269
lfoot -21.9871 6.37726
ltoes 13.9891
432
root 4.55805 16.3788 2.25197 14.3496 -8.136 -0.264304
lowerback 6.10999 -0.76246 -0.511526
upperback 1.40599 -1.05849 -0.485217
thorax -1.97673 -0.526256 -0.130182
lowerneck -13.8005 -0.703111 -2.31801
upperneck 36.9306 -0.319616 -0.415662
head 15.2236 -0.568024 0.170224
rclavicle 2.08724e-014 -1.55052e-014
rhumerus -37.4903 37.5859 -79.056
rradius 92.3485
rwrist -29.5749
rhand -3.81821 -43.3527
rfingers 7.12502
rthumb 21.9285 -72.1299
lclavicle 2.08724e-014 -1.55052e-014
lhumerus -22.094 -41.5848 72.0615
lradius 82.7473
lwrist 50.3897
lhand -16.3975 -22.9983
lfingers 7.12502
lthumb 9.81664 6.75291
rfemur -63.9117 -2.1247 19.9702
rtibia 33.8757
rfoot 37.4801 -4.58759
rtoes 8.11175
lfemur -40.6622 -2.0905 -29.125
ltibia 50.0438
lfoot -22.0623 6.48418
ltoes 13.9674
